<?xml version="1.0" ?>

<!-- Uploaded to: SVG Repo, www.svgrepo.com, Generator: SVG Repo Mixer Tools -->
<svg fill="#000000" width="800px" height="800px" viewBox="0 0 512 512" version="1.1" xml:space="preserve" xmlns="http://www.w3.org/2000/svg" xmlns:xlink="http://www.w3.org/1999/xlink">

<g id="bed-hotel-heart-love-valentine">

<path d="M440,358.242V312c0-16.36-9.898-30.419-24-36.609V200c0-22.055-17.945-40-40-40H271.72l30.042-30.37   c11.85-11.979,13.889-31.23,3.614-44.605C292.961,68.863,269.847,67.782,256,81.78c-13.847-13.998-36.961-12.917-49.375,3.245   c-10.275,13.376-8.235,32.626,3.614,44.605L240.28,160H136c-22.055,0-40,17.945-40,40v75.391C81.898,281.581,72,295.64,72,312   v46.242c-4.875,4.396-8,10.692-8,17.758v8c0,10.416,6.708,19.212,16,22.525V424c0,13.234,10.766,24,24,24h16   c13.234,0,24-10.766,24-24v-16h224v16c0,13.234,10.766,24,24,24h16c13.234,0,24-10.766,24-24v-17.474   c9.292-3.313,16-12.11,16-22.526v-8C448,368.935,444.875,362.638,440,358.242z M112,200c0-13.234,10.766-24,24-24h240   c13.234,0,24,10.766,24,24v72h-24v-16c0-13.234-10.766-24-24-24h-48c-13.234,0-24,10.766-24,24v16h-48v-16   c0-13.234-10.766-24-24-24h-48c-13.234,0-24,10.766-24,24v16h-24V200z M432,384c0,4.414-3.59,8-8,8h-48H136H88c-4.41,0-8-3.586-8-8   v-8c0-4.711,4.193-8,8-8h336c3.917,0,8,3.375,8,8V384z"/>

</g>

<g id="Layer_1"/>

</svg>