<?xml version="1.0" ?>

<!-- Uploaded to: SVG Repo, www.svgrepo.com, Generator: SVG Repo Mixer Tools -->
<svg fill="#000000" width="800px" height="800px" viewBox="0 0 512 512" version="1.1" xml:space="preserve" xmlns="http://www.w3.org/2000/svg" xmlns:xlink="http://www.w3.org/1999/xlink">

<g id="calendar-date-heart-love-valentine">

<path d="M408,96h-8v-8c0-13.2-10.8-24-24-24h-8c-13.2,0-24,10.8-24,24v8h-32.64c-6.88-9.04-17.04-14.64-28.16-15.84   c-9.76-0.96-19.36,1.6-27.2,7.12c-7.84-5.52-17.44-8.08-27.2-7.12c-11.12,1.2-21.28,6.8-28.16,15.84H168v-8c0-13.2-10.8-24-24-24   h-8c-13.2,0-24,10.8-24,24v8h-8c-22.08,0-40,17.92-40,40v32v240c0,22.08,17.92,40,40,40h304c22.08,0,40-17.92,40-40V168v-32   C448,113.92,430.08,96,408,96z M128,88c0-4.4,3.6-8,8-8h8c4.4,0,8,3.6,8,8c0,11.787,0,20.296,0,32c0,4.4-3.6,8-8,8h-8   c-4.4,0-8-3.6-8-8C128,108.213,128,99.704,128,88z M230.4,96.16c5.29-1.059,13.866,1.146,19.92,7.2c3.034,3.04,8.387,2.973,11.36,0   c4.64-4.72,10.88-7.36,17.36-7.36c22.491,0,33.414,27.196,16.96,44l-19.76,20c-9.625,9.821-6.305,6.446-14.56,14.8   c-3.087,3.087-8.206,3.153-11.36,0c-8.257-8.355-4.935-4.978-14.56-14.8L216,140c-9.153-9.348-10.175-23.217-4-32.48   C215.771,101.489,222.451,96.883,230.4,96.16z M360,88c0-4.4,3.6-8,8-8h8c4.4,0,8,3.6,8,8c0,11.787,0,20.296,0,32c0,4.4-3.6,8-8,8   h-8c-4.4,0-8-3.6-8-8C360,108.213,360,99.704,360,88z M432,408c0,13.2-10.8,24-24,24H104c-13.2,0-24-10.8-24-24V176h149.04   c9.612,9.768,14.816,17.2,26.96,17.2c12.275,0,17.578-7.665,26.96-17.2H432V408z M224,272v92c0,11.046-8.954,20-20,20   c-11.045,0-20-8.954-20-20v-84h-11.963c-11.045,0-20-8.954-20-20s8.955-20,20-20H192C209.673,240,224,254.327,224,272z M284,240   c11.046,0,20,8.954,20,20v44h24v-44c0-11.046,8.955-20,20-20c11.046,0,20,8.954,20,20v104c0,11.046-8.954,20-20,20   c-11.045,0-20-8.954-20-20v-20h-44c-11.045,0-20-8.954-20-20v-64C264,248.954,272.955,240,284,240z"/>

</g>

<g id="Layer_1"/>

</svg>