<?xml version="1.0" ?>

<!-- Uploaded to: SVG Repo, www.svgrepo.com, Generator: SVG Repo Mixer Tools -->
<svg fill="#000000" width="800px" height="800px" viewBox="0 0 512 512" version="1.1" xml:space="preserve" xmlns="http://www.w3.org/2000/svg" xmlns:xlink="http://www.w3.org/1999/xlink">

<g id="candle-heart-love-valentine">

<path d="M368,392h-40V286.526c9.292-3.313,16-12.11,16-22.526v-64c0-13.234-10.766-24-24-24h-26.851   c7.394-12.188,11.409-25.94,11.409-40c0-29.18-16.496-55.727-44.129-71c-5.387-2.965-11.871,0.956-11.871,7   c0,8.266-5.57,14.258-14.656,23.344c-9.164,9.164-20.566,20.563-25.105,38.727c-3.45,13.854-0.285,28.324,8.886,41.93H192   c-13.234,0-24,10.766-24,24v48c0,10.416,6.708,19.212,16,22.525V392h-40c-8.824,0-16,7.18-16,16c0,22.055,17.945,40,40,40h176   c22.055,0,40-17.945,40-40C384,399.18,376.824,392,368,392z M224.32,137.938c3.461-13.844,12.324-22.711,20.895-31.281   c6.516-6.516,13.184-13.18,16.734-21.656c16.836,12.695,26.609,31.133,26.609,51c0,14.399-5.36,28.459-15.05,40h-11.183   c-2.553-7.662-5.001-13.451,1.463-19.922c9.752-9.739,8.77-20.077,8.77-28.078c0-4.422-3.582-8-8-8s-8,3.578-8,8   c0,6.843,0.761,11.927-4.078,16.766c-7.754,7.743-11.043,19.16-7.021,31.234h-7.214   C230.461,167.868,220.378,153.777,224.32,137.938z M184,200c0-4.414,3.59-8,8-8h43.006c0.011,0,0.02,0,0.03,0H320   c4.41,0,8,3.586,8,8v64c0,4.414-3.59,8-8,8c-8.836,0-16-7.164-16-16v-8c0-8.837-7.163-16-16-16c-8.836,0-16,7.163-16,16v24   c0,8.836-7.163,16-16,16c-8.836,0-16-7.164-16-16v-40c0-8.837-7.163-16-16-16c-8.836,0-16,7.163-16,16v8c0,8.836-7.163,16-16,16   c-4.41,0-8-3.586-8-8V200z"/>

</g>

<g id="Layer_1"/>

</svg>