<?xml version="1.0" ?>

<!-- Uploaded to: SVG Repo, www.svgrepo.com, Generator: SVG Repo Mixer Tools -->
<svg fill="#000000" width="800px" height="800px" viewBox="0 0 512 512" version="1.1" xml:space="preserve" xmlns="http://www.w3.org/2000/svg" xmlns:xlink="http://www.w3.org/1999/xlink">

<g id="candles-heart-love-valentine">

<path d="M281.484,105.666l-19.953,20.46c-3.14,3.22-8.315,3.22-11.455,0l-19.952-20.46c-7.017-7.196-8.387-18.749-2.104-26.594   c7.145-8.922,20.022-9.402,27.784-1.442c7.763-7.96,20.64-7.479,27.785,1.442C289.871,86.917,288.501,98.47,281.484,105.666z    M248,240v64c0,10.416-6.708,19.213-16,22.526V416v8c0,13.234-10.766,24-24,24h-96c-13.234,0-24-10.766-24-24V310.525   c-9.292-3.313-16-12.11-16-22.525v-48c0-13.234,10.766-24,24-24h25.121c-9.17-13.604-12.333-28.078-8.882-41.93   c4.539-18.164,15.941-29.563,25.105-38.727C146.43,126.258,152,120.266,152,112c0-6.037,6.492-9.965,11.871-7   C191.504,120.281,208,146.82,208,176c0,14.06-4.016,27.812-11.409,40H224C237.234,216,248,226.766,248,240z M141.645,216h7.256   c-4.021-12.075-0.733-23.492,7.021-31.234c2.594-2.594,4.078-6.18,4.078-9.844V168c0-4.422,3.582-8,8-8s8,3.578,8,8v6.922   c0,8-3.113,15.508-8.77,21.156c-6.464,6.471-4.016,12.259-1.463,19.922h11.268C186.707,204.469,192,190.391,192,176   c0-19.867-9.773-38.305-26.609-51c-3.555,8.477-10.219,15.141-16.734,21.656c-8.57,8.57-17.434,17.438-20.895,31.281   C123.832,193.734,133.871,207.859,141.645,216z M216,325.478c-9.541-7.473-24.048-6.917-32.688,1.882c0,0,0,0-0.004,0   c-9.719,9.906-9.719,26.016,0,35.922L216,396.479V325.478z M232,240c0-4.414-3.59-8-8-8h-43.359h-42.32H96c-4.41,0-8,3.586-8,8v48   c0,4.414,3.59,8,8,8c8.836,0,16-7.164,16-16v-8c0-8.837,7.164-16,16-16s16,7.163,16,16v40c0,8.836,7.164,16,16,16s16-7.164,16-16   v-24c0-8.837,7.164-16,16-16s16,7.163,16,16v8c0,8.836,7.164,16,16,16c4.41,0,8-3.586,8-8V240z M440,200v64   c0,10.416-6.708,19.213-16,22.526V424c0,13.234-10.766,24-24,24h-96c-13.234,0-24-10.766-24-24v-8v-94.242v-51.232   c-9.292-3.313-16-12.11-16-22.525v-48c0-13.234,10.766-24,24-24h25.121c-9.17-13.604-12.333-28.078-8.886-41.93   c4.539-18.164,15.945-29.563,25.109-38.727C338.43,86.258,344,80.266,344,72c0-6.04,6.506-9.952,11.867-7   C383.5,80.273,400,106.82,400,136c0,14.06-4.016,27.812-11.408,40H416C429.234,176,440,186.766,440,200z M333.681,176h7.22   c-3.998-11.974-0.792-23.422,7.021-31.234c2.594-2.594,4.078-6.18,4.078-9.844V128c0-4.422,3.578-8,8-8s8,3.578,8,8v6.922   c0,7.875-3.195,15.586-8.766,21.156c-6.467,6.467-4.028,12.26-1.473,19.922h11.186C378.641,164.459,384,150.399,384,136   c0-19.867-9.773-38.305-26.609-51c-3.555,8.477-10.219,15.141-16.734,21.656c-8.57,8.57-17.43,17.438-20.898,31.281   C315.816,153.783,325.897,167.873,333.681,176z M328.688,327.367c-8.633-8.766-23.234-9.578-32.688-2.063v71.164l32.688-33.195   C338.43,353.375,338.43,337.266,328.688,327.367z M424,200c0-4.414-3.586-8-8-8h-85.518c-0.011,0-0.02,0-0.03,0H288   c-4.414,0-8,3.586-8,8v48c0,4.414,3.586,8,8,8c8.836,0,16-7.164,16-16v-8c0-8.836,7.164-16,16-16s16,7.164,16,16v40   c0,8.836,7.164,16,16,16s16-7.164,16-16v-24c0-8.836,7.164-16,16-16s16,7.164,16,16v8c0,8.836,7.164,16,16,16c4.414,0,8-3.586,8-8   V200z"/>

</g>

<g id="Layer_1"/>

</svg>