<?xml version="1.0" ?>

<!-- Uploaded to: SVG Repo, www.svgrepo.com, Generator: SVG Repo Mixer Tools -->
<svg fill="#000000" width="800px" height="800px" viewBox="0 0 512 512" version="1.1" xml:space="preserve" xmlns="http://www.w3.org/2000/svg" xmlns:xlink="http://www.w3.org/1999/xlink">

<g id="candles-holder-heart-love-wine">

<path d="M256,128c-10.048-5.742-16.249-16.427-16.249-28S245.952,77.742,256,72c10.048,5.742,16.249,16.427,16.249,28   S266.048,122.258,256,128z M144.249,100c0-11.573-6.201-22.258-16.249-28c-10.048,5.742-16.249,16.427-16.249,28   s6.201,22.258,16.249,28C138.048,122.258,144.249,111.573,144.249,100z M400.249,100c0-11.573-6.201-22.258-16.249-28   c-10.048,5.742-16.249,16.427-16.249,28s6.201,22.258,16.249,28C394.048,122.258,400.249,111.573,400.249,100z M448,240   c0,85.991,0,42.417,0,56c0,29.667-20.101,54.758-48,61.917V408h8.087c8.8,0,16,7.12,15.92,16v8c0,4.4-3.6,8-8,8h-64   c-4.4,0-8-3.6-8-8v-8.08c0.08-8.8,7.2-15.92,16-15.92H368v-50.264c-21.379-5.588-39.599-21.869-45.898-45.869   c-0.71,0.02-1.39,0.132-2.102,0.132h-33.325L272,327.048V408h24c4.418,0,8,3.582,8,8c0,13.255-10.745,24-24,24h-48   c-13.255,0-24-10.745-24-24c0-4.418,3.582-8,8-8h24v-80.952L225.325,312H192c-0.694,0-1.358-0.11-2.051-0.129   c-5.772,22.688-23.324,40.24-45.949,46.046V408h8.087c8.8,0,16,7.12,15.92,16v8c0,4.4-3.6,8-8,8h-64c-4.4,0-8-3.6-8-8v-8.08   c0.08-8.8,7.2-15.92,16-15.92H112v-50.106C84.442,350.761,64,325.756,64,296c0-20.116,0-35.017,0-56c0-13.234,10.766-24,24-24h24   v-24H88c-4.422,0-8-3.578-8-8s3.578-8,8-8h16v-40c0-4.418,3.582-8,8-8h16h16c4.418,0,8,3.582,8,8v40h16c4.422,0,8,3.578,8,8   s-3.578,8-8,8h-24v24h24c13.234,0,24,10.766,24,24v40h26.511c4.106-9.398,12.433-14.775,21.489-15.739V232h-24   c-4.422,0-8-3.578-8-8s3.578-8,8-8h16v-80c0-4.418,3.582-8,8-8h16h16c4.418,0,8,3.582,8,8v80h16c4.422,0,8,3.578,8,8s-3.578,8-8,8   h-24v32.261c8.896,0.947,17.328,6.215,21.489,15.739H320v-40c0-13.234,10.766-24,24-24h24v-24h-24c-4.422,0-8-3.578-8-8   s3.578-8,8-8h16v-40c0-4.418,3.582-8,8-8h16h16c4.418,0,8,3.582,8,8v40h16c4.422,0,8,3.578,8,8s-3.578,8-8,8h-24v24h24   C437.234,216,448,226.766,448,240z M80,240v29.759c17.655-9.897,41.382-7.848,52.445-2.157   c18.248,9.51,28.523,22.317,43.555,19.528V240c0-4.414-3.586-8-8-8H88C83.586,232,80,235.586,80,240z M236.047,300.078L256,320.539   l19.953-20.461c4.438-4.547,5.133-11.578,1.586-16c0-0.008,0-0.008,0-0.008c-4.196-5.24-11.462-5.296-15.813-0.852   c-3.016,3.094-8.438,3.094-11.453,0c-4.487-4.59-11.731-4.247-15.813,0.852C230.914,288.5,231.609,295.531,236.047,300.078z    M336,269.742c0.032-0.018,0.068-0.028,0.101-0.046c16.539-9.214,40.436-8.223,52.344-2.094   c18.296,9.535,28.491,22.326,43.555,19.528V240c0-4.414-3.586-8-8-8h-80c-4.414,0-8,3.586-8,8V269.742z"/>

</g>

<g id="Layer_1"/>

</svg>