<?xml version="1.0" ?>

<!-- Uploaded to: SVG Repo, www.svgrepo.com, Generator: SVG Repo Mixer Tools -->
<svg fill="#000000" width="800px" height="800px" viewBox="0 0 512 512" version="1.1" xml:space="preserve" xmlns="http://www.w3.org/2000/svg" xmlns:xlink="http://www.w3.org/1999/xlink">

<g id="chocolate_bar-snack-heart-love-valentine">

<path d="M272,136v-24c0-4.418,3.582-8,8-8h48c4.418,0,8,3.582,8,8v24c0,4.418-3.582,8-8,8h-48C275.582,144,272,140.418,272,136z    M184,144h48c4.418,0,8-3.582,8-8v-24c0-4.418-3.582-8-8-8h-48c-4.418,0-8,3.582-8,8v24C176,140.418,179.582,144,184,144z    M380.695,237.906c-0.008,0-0.008,0-0.008,0L376,238.894V320c0,4.418-3.582,8-8,8h-48.155c0.231,11.235-3.873,22.638-12.399,31.258   L298.797,368H368c4.418,0,8,3.582,8,8v32c0,22.091-17.909,40-40,40H176c-22.091,0-40-17.909-40-40v-32c0-4.418,3.582-8,8-8h69.206   l-8.651-8.746c-8.526-8.618-12.631-20.019-12.399-31.254H144c-4.418,0-8-3.582-8-8V208.064l-14.938-7.068   c-15.039-7.22-18.351-27.02-6.641-38.73L136,140.688V104c0-22.091,17.909-40,40-40h160c22.091,0,40,17.909,40,40v76.688   l16.773,16.777C406.207,210.89,399.365,233.963,380.695,237.906z M152,104v36.688L187.313,176H232c4.418,0,8,3.582,8,8v24   c0,4.418-3.582,8-8,8h-4.688l29.783,29.783L303.428,216H280c-4.418,0-8-3.582-8-8v-24c0-4.418,3.582-8,8-8h48c4.418,0,8,3.582,8,8   v11.063l24-15.428V104c0-13.234-10.766-24-24-24H176C162.766,80,152,90.766,152,104z M127.938,186.543   c97.507,46.13,88.989,42.101,89.758,42.465L144,155.313l-18.266,18.266C121.788,177.524,122.904,184.133,127.938,186.543z    M280.813,304.082c-6.961-0.398-14.078,2.223-19.125,7.324c-3,3.039-8.375,3.039-11.375,0c-5.081-5.136-12.066-7.759-19.125-7.324   c-21.253,1.331-31.479,27.534-15.258,43.918l32.5,32.859c4.047,4.094,11.094,4.094,15.141,0l32.5-32.855   C312.346,331.558,302.008,305.41,280.813,304.082z M381.461,208.777l-14.563-14.563l-69.908,44.952   c83.687-17.631,79.617-16.751,80.4-16.917C383.643,220.923,385.947,213.257,381.461,208.777z"/>

</g>

<g id="Layer_1"/>

</svg>