<?xml version="1.0" ?>

<!-- Uploaded to: SVG Repo, www.svgrepo.com, Generator: SVG Repo Mixer Tools -->
<svg fill="#000000" width="800px" height="800px" viewBox="0 0 512 512" version="1.1" xml:space="preserve" xmlns="http://www.w3.org/2000/svg" xmlns:xlink="http://www.w3.org/1999/xlink">

<g id="angel-wings-heart-love-valentine">

<path d="M256,144c-6.547,0-64-0.672-64-24s57.453-24,64-24s64,0.672,64,24S262.547,144,256,144z M209.367,120   c5.391,3.324,21.539,8,46.633,8s41.242-4.676,46.633-8c-5.391-3.324-21.539-8-46.633-8S214.758,116.676,209.367,120z    M471.984,307.309l-75.672-75.668c-15.627-15.732-41.024-15.706-56.609-0.016l-7.785,7.785c-0.447-7.484-9.017-13.592-11.198-20.45   c-2.4-7.28,1.2-17.6-3.2-23.6c-4.48-6.16-15.44-5.92-21.52-10.4c-6.08-4.4-9.28-14.88-16.48-17.28   c-7.04-2.24-15.76,4.32-23.52,4.32s-16.48-6.56-23.52-4.32c-7.2,2.4-10.4,12.88-16.48,17.28c-6.08,4.48-17.04,4.24-21.52,10.4   c-4.4,6-0.8,16.32-3.2,23.6c-2.182,6.857-10.751,12.967-11.198,20.45l-7.769-7.77c-15.627-15.732-41.024-15.706-56.609-0.016   l-75.695,75.691c-3.023,3.031-4.68,7.059-4.672,11.34c0.008,4.277,1.688,8.297,4.719,11.313l7.008,6.973   c5.718,5.704,13.965,8.427,22.352,6.406l9.648,9.594c6.078,6.066,14.516,8.344,22.383,6.379l9.617,9.621   c6.047,6.035,14.484,8.316,22.367,6.418l9.594,9.543c4.539,4.59,10.563,7.121,16.977,7.121c2.781,0,5.458-0.562,8-1.472   C168,406.547,179.614,416,192,416h128c12.104,0,24-9.148,24-25.45c9.3,3.334,18.707,0.694,24.922-5.597l9.648-9.594   c7.906,1.902,16.328-0.383,22.367-6.422l9.617-9.617c7.867,1.953,16.305-0.313,22.367-6.367l9.679-9.623   c14.336,3.444,21.344-5.407,29.344-13.358c3.031-3.02,4.711-7.039,4.719-11.316C476.672,314.375,475.016,310.348,471.984,307.309z    M224,246c0-16.234,12.148-29.684,27.945-31.75c3.352,7.375,8.742,13.766,15.578,18.379c5.969,4.035,12.75,6.469,19.875,7.184   C287.805,241.82,288,243.871,288,246v16c0,21.711-21.325,37.085-42.141,30.294C233.504,288.239,224,276.439,224,262V246z M168,358   v13.246l-2.414,2.414c-3,3.047-8.117,3.098-11.227-0.051l-7.068-7.026l9.646-9.646c3.125-3.125,3.125-8.188,0-11.313   c-3.125-3.125-8.188-3.125-11.313,0l-11.984,11.98c-3.007,2.984-7.915,3.365-11.266,0.02l-7.063-7.063l25.625-25.625   c3.125-3.125,3.125-8.188,0-11.313c-3.125-3.125-8.188-3.125-11.313,0l-27.984,27.98c-2.6,2.622-7.711,3.568-11.281,0.004   l-7.063-7.022l60.728-60.611l47.612,47.612C177.737,327.864,168,341.788,168,358z M155.336,262.66   c-6.258-6.25-16.43-6.246-22.672-0.004l-63.023,62.949c-3.104,3.08-8.01,3.265-11.281,0.004l-7.031-6.988l75.703-75.699   c9.063-9.109,24.859-9.125,33.953,0.016l31.127,31.13c-0.007,3.969,0.299,7.747,2.369,10.573c5.564,7.65,14.475,11.836,26.047,9.63   c1.092,1.188,2.255,2.312,3.473,3.389V318h-13.328L155.336,262.66z M282.858,385.7l-18.984,19.035   c-4.345,4.357-11.402,4.357-15.747,0l-18.984-19.035c-6.91-6.929-8.336-19.449-2.148-27.03c6.489-7.951,17.528-9.342,25.626-4.199   c-2.939-7.981-8.65-23.032-12.62-30.554v-16.633c10.265,3.639,22.08,3.493,32-0.027v16.66c-3.968,7.519-9.694,22.609-12.62,30.554   c8.098-5.143,19.137-3.752,25.626,4.199C291.194,366.252,289.768,378.771,282.858,385.7z M421.625,341.621   c-3.524,3.546-8.63,2.623-11.25,0.004l-28-28c-3.125-3.125-8.188-3.125-11.313,0c-3.125,3.125-3.125,8.188,0,11.313l25.622,25.626   l-7.06,7.058c-3.305,3.305-8.205,3-11.25,0.004l-12-12c-3.125-3.125-8.188-3.125-11.313,0c-3.125,3.125-3.125,8.188,0,11.313   l9.644,9.646l-7.12,7.076c-3,3.047-8.133,3.082-11.211-0.035L344,371.248v-13.807c0-16.057-9.68-29.852-23.481-35.999   l47.504-47.466l60.681,60.609L421.625,341.621z M453.625,325.621c-3.218,3.228-8.162,3.063-11.25,0l-63.039-62.965   c-6.258-6.25-16.43-6.242-22.672,0.008L301.328,318H288v-20.316c1.223-1.086,2.392-2.22,3.486-3.414   c1.773,0.334,3.376,0.608,4.514,0.771c8,0.96,17.04-4.24,21.52-10.4c2.07-2.827,2.375-6.606,2.369-10.576l31.143-31.143   c9.063-9.109,24.859-9.125,33.953,0.016l75.68,75.688L453.625,325.621z"/>

</g>

<g id="Layer_1"/>

</svg>