<?xml version="1.0" ?>

<!-- Uploaded to: SVG Repo, www.svgrepo.com, Generator: SVG Repo Mixer Tools -->
<svg fill="#000000" width="800px" height="800px" viewBox="0 0 512 512" version="1.1" xml:space="preserve" xmlns="http://www.w3.org/2000/svg" xmlns:xlink="http://www.w3.org/1999/xlink">

<g id="shopping_bag-bag-heart-love-valentine">

<path d="M208,264c0,4.41-3.59,8-8,8s-8-3.59-8-8s3.59-8,8-8S208,259.59,208,264z M312,256c-4.41,0-8,3.59-8,8s3.59,8,8,8   s8-3.59,8-8S316.41,256,312,256z M371.44,440H140.56c-19.36,0-34.32-17.04-31.76-36.24L136,200l13.467-31.381   c-18.64-25.45-17.106-57.719-0.456-79.412C171.23,60.31,212.014,55.545,240,77.828c27.962-22.256,68.731-17.562,90.984,11.375   c4.003,5.169,7.055,10.927,9.2,17.107c22.201,7.506,33.587,31.35,24.98,53.721c-0.875,2.357-2.028,4.64-3.342,6.846L376,200   l27.2,203.76C405.76,422.96,390.8,440,371.44,440z M332.237,120.556c-0.003,0-0.007,0-0.01-0.001   c-8.25-1.691-16.668,0.848-22.516,6.805c-1.5,1.531-3.551,2.395-5.695,2.398c-0.004,0-0.012,0-0.016,0   c-2.137,0-4.188-0.855-5.688-2.375c-5.031-5.09-12.016-7.793-19.094-7.305c-16.753,1.048-28.331,18.476-21,35.379   c3.117,7.411,7.084,9.911,33.371,36.543h24.829c26.312-26.665,30.804-29.564,33.754-37.566c0.016-0.039,0.031-0.078,0.047-0.121   C356.252,138.694,346.501,123.487,332.237,120.556z M167.246,164.969L193.98,192h75.124   c-17.691-17.926-21.648-20.833-25.601-30.262c-11.76-27.12,7.115-55.904,34.711-57.629c9.23-0.594,18.285,2.008,25.766,7.219   c5.362-3.759,12.081-6.194,17.914-6.957c-15.598-27.731-53.544-33.076-76.211-10.184c-1.5,1.516-3.547,2.371-5.684,2.371   s-4.184-0.855-5.684-2.371c-20.061-20.276-54.036-19.399-72.613,4.766C147.205,117.841,148.909,146.212,167.246,164.969z M336,264   c0-13.234-10.766-24-24-24s-24,10.766-24,24c0,10.416,6.708,19.212,16,22.525V320c0,26.469-21.531,48-48,48s-48-21.531-48-48   v-33.474c9.292-3.313,16-12.11,16-22.526c0-13.234-10.766-24-24-24s-24,10.766-24,24c0,10.416,6.708,19.212,16,22.525V320   c0,35.289,28.711,64,64,64s64-28.711,64-64v-33.474C329.292,283.213,336,274.416,336,264z"/>

</g>

<g id="Layer_1"/>

</svg>