<?xml version="1.0" ?>

<!-- Uploaded to: SVG Repo, www.svgrepo.com, Generator: SVG Repo Mixer Tools -->
<svg fill="#000000" width="800px" height="800px" viewBox="0 0 512 512" version="1.1" xml:space="preserve" xmlns="http://www.w3.org/2000/svg" xmlns:xlink="http://www.w3.org/1999/xlink">

<g id="ballons-celebration-heart-love-valentine">

<path d="M440,185.12C440,122.64,397.04,72,344,72c-45.52,0-83.52,37.2-93.44,87.28C233.76,126.16,203.12,104,168,104   c-53.04,0-96,50.64-96,113.12c0,51.721,29.441,95.28,69.685,108.774l-0.324,0.825l-12.443,24.09   c-3.182,6.161,2.443,13.234,9.131,11.404c6.738-1.844,14.545-3.601,21.953-4.429c0,14.71,0.054,32.933,5.327,52.316   c0.969,3.563,4.191,5.898,7.715,5.898c0.695,0,1.402-0.086,2.105-0.281c4.262-1.156,6.777-5.555,5.617-9.82   c-4.716-17.339-4.762-33.663-4.763-48.113c7.407,0.828,15.213,2.585,21.949,4.428c6.688,1.831,12.313-5.243,9.131-11.404   l-12.443-24.09l-0.317-0.808c33.351-11.207,59.222-42.925,67.117-82.952c12.395,24.479,32.478,42.934,56.253,50.913l-0.333,0.847   l-12.443,24.09c-3.182,6.161,2.443,13.234,9.131,11.404c6.737-1.844,14.544-3.6,21.951-4.428   c-0.001,29.896-0.231,70.658-45.12,108.066c-3.395,2.828-3.852,7.875-1.023,11.273c1.582,1.898,3.855,2.875,6.148,2.875   c1.805,0,3.621-0.609,5.117-1.852c50.63-42.191,50.877-89.127,50.878-120.363c7.408,0.828,15.215,2.585,21.953,4.429   c6.688,1.831,12.313-5.243,9.131-11.404l-12.443-24.09l-0.324-0.825C410.56,280.4,440,236.841,440,185.12z M213.76,233.6   l-32.48,32.88c-7.36,7.44-19.2,7.44-26.56,0l-32.48-32.88c-11.84-11.92-13.92-31.2-3.6-44.56c12.4-16.16,35.52-17.28,49.36-3.28   c13.84-14,36.96-12.88,49.36,3.28C227.68,202.4,225.6,221.68,213.76,233.6z M389.76,201.6l-32.48,32.88   c-7.36,7.44-19.2,7.44-26.56,0l-32.48-32.88c-11.84-11.92-13.92-31.2-3.6-44.56c12.4-16.16,35.52-17.28,49.36-3.28   c13.84-14,36.96-12.88,49.36,3.28C403.68,170.4,401.6,189.68,389.76,201.6z"/>

</g>

<g id="Layer_1"/>

</svg>