<?xml version="1.0" ?>

<!-- Uploaded to: SVG Repo, www.svgrepo.com, Generator: SVG Repo Mixer Tools -->
<svg fill="#000000" width="800px" height="800px" viewBox="0 0 512 512" version="1.1" xml:space="preserve" xmlns="http://www.w3.org/2000/svg" xmlns:xlink="http://www.w3.org/1999/xlink">

<g id="coffee-cups-tea-love-heart">

<path d="M210.239,161.63c-11.85-11.979-13.889-31.229-3.614-44.605c12.414-16.161,35.529-17.243,49.375-3.245   c13.847-13.998,36.961-12.917,49.375,3.245c10.275,13.375,8.235,32.626-3.614,44.605l-32.5,32.855   c-7.318,7.398-19.204,7.398-26.522,0L210.239,161.63z M88,248c0-26,45.36-40,88-40c31.84,0,65.12,7.76,80,22.56   c14.88-14.8,48.16-22.56,80-22.56c42.64,0,88,14,88,40c0,28.56-51.68,40-88,40c-32.08,0-65.2-7.84-80-22.48   C241.2,280.16,208.08,288,176,288C139.68,288,88,276.56,88,248z M264,248c0,3.28,3.92,6.96,6.56,8.88   c16.48-10.8,40-16.88,65.44-16.88c25.52,0,48.96,6.08,65.44,16.88c2.64-1.92,6.56-5.6,6.56-8.88c0-9.76-28.08-24-72-24   S264,238.24,264,248z M104,248c0,3.28,3.92,6.96,6.56,8.88C127.04,246.08,150.48,240,176,240c25.44,0,48.96,6.08,65.44,16.88   c2.64-1.92,6.56-5.6,6.56-8.88c0-9.76-28.08-24-72-24S104,238.24,104,248z M472,308v40c0,15.44-12.56,28-28,28h-34.32   c-6.56,10.08-13.76,17.36-23.12,24H400c4.4,0,8,3.6,8,8s-3.6,8-8,8H272c-4.4,0-8-3.6-8-8s3.6-8,8-8h13.52   c-12.72-8.96-22.96-21.12-29.52-35.36c-6.56,14.24-16.8,26.4-29.52,35.36H240c4.4,0,8,3.6,8,8s-3.6,8-8,8H112c-4.4,0-8-3.6-8-8   s3.6-8,8-8h13.44c-9.36-6.64-16.56-13.92-23.12-24H68c-15.44,0-28-12.56-28-28v-40c0-15.44,12.56-28,28-28h20v-0.16   c0.08,0.08,0.16,0.16,0.24,0.16c18.16,16.24,54.8,24,87.76,24c22.32,0,50.48-3.6,72-14c2.8-1.36,5.44-2.8,8-4.4   c2.56,1.6,5.2,3.04,8,4.4c21.52,10.4,49.68,14,72,14c32.96,0,69.6-7.76,87.76-24c0.08,0,0.16-0.08,0.24-0.16V280h20   C459.44,280,472,292.56,472,308z M91.36,352c-2.24-7.6-3.36-15.68-3.36-24v-24H68c-2.24,0-4,1.76-4,4v40c0,2.24,1.76,4,4,4H91.36z    M203.76,342.56c-7.12-8.96-20-9.44-27.76-1.44c-7.76-8-20.64-7.52-27.76,1.44c-6.32,7.84-4.96,19.36,2.08,26.56l19.92,20.48   c3.2,3.2,8.32,3.2,11.52,0l19.92-20.48C208.72,361.92,210.08,350.4,203.76,342.56z M363.76,342.56c-7.12-8.96-20-9.44-27.76-1.44   c-7.76-8-20.64-7.52-27.76,1.44c-6.32,7.84-4.96,19.36,2.08,26.56l19.92,20.48c3.2,3.2,8.32,3.2,11.52,0l19.92-20.48   C368.72,361.92,370.08,350.4,363.76,342.56z M448,308c0-2.24-1.76-4-4-4h-20v24c0,8.32-1.12,16.4-3.36,24H444c2.24,0,4-1.76,4-4   V308z"/>

</g>

<g id="Layer_1"/>

</svg>