<?xml version="1.0" ?>

<!-- Uploaded to: SVG Repo, www.svgrepo.com, Generator: SVG Repo Mixer Tools -->
<svg fill="#000000" width="800px" height="800px" viewBox="0 0 512 512" version="1.1" xml:space="preserve" xmlns="http://www.w3.org/2000/svg" xmlns:xlink="http://www.w3.org/1999/xlink">

<g id="cupid-arrow-bow-heart-love">

<path d="M411.76,156.48c15.52,0,28.24-12.96,28.24-28.48V88c0-8.8-7.2-16-16-16h-40c-15.52,0-28.48,12.72-28.48,28.24   c0,9.2,4.4,17.28,11.2,22.4c-13.04,13.04-25.12,25.12-36.4,36.4c-3.632-17.887-12.339-35.281-24.209-49.614   c3.83-8.785,2.21-19.395-4.962-26.571c-8.636-8.633-22.191-9.196-31.597-1.917c-2.594-1.134-5.212-2.129-7.871-2.939   C218.72,64.72,180.4,76.08,152,89.6v35.92c37.362-20.499,67.537-25.978,97.192-17.72c-1.006,7.207,1.167,14.778,6.694,20.31   l0.004,0.004c4.535,4.527,10.563,7.023,16.969,7.023c3.81,0,7.434-0.978,10.737-2.642c13.704,17.924,20.18,41.109,14.404,58.865   C245.28,244.08,230.16,259.2,177.36,312H136V97.76c-0.08,0-0.08,0.08-0.16,0.08c-8.08,4.08-20.72-0.08-25.44-9.28   c-3.52-6.96-11.68-10.72-19.12-8.4c-9.6,3.04-13.92,13.76-9.6,22.4c7.44,15.12,22.16,25.36,38.32,28.08v183.04   c-4.72,1.6-9.12,4.16-12.72,7.68l-27.36,27.36c-10.08,10.08-2.96,27.36,11.28,27.36h22.08l-7.36,7.36c-6.24,6.24-6.24,16.4,0,22.64   c6.24,6.24,16.4,6.24,22.64,0c2.4-2.4,4.8-4.8,7.36-7.36v22c0,14.24,17.28,21.28,27.36,11.28l27.36-27.36   c3.52-3.6,6.08-8,7.68-12.64h183.04c2.72,16.16,12.96,30.88,28.08,38.32c8.64,4.32,19.36,0,22.4-9.6c2.32-7.44-1.44-15.6-8.4-19.12   c-9.2-4.72-13.28-17.36-9.28-25.44h0.08c0-0.08,0-0.08,0.08-0.16h-0.4c0,0-4.8,0-32.8,0H200v-41.36   C243.52,291.12,320.64,214,320.64,214c18.462-6.036,41.556,1.133,58.884,14.394c-4.516,8.995-3.132,20.22,4.367,27.715v0.004   c4.531,4.527,10.563,7.023,16.969,7.023c1.135,0,2.237-0.172,3.342-0.326c8.256,29.654,2.777,59.829-17.721,97.189h35.92   c13.52-28.4,24.88-66.72,11.6-109.68c-0.81-2.659-1.805-5.277-2.939-7.871c7.279-9.404,6.71-22.967-1.913-31.593   c-7.179-7.185-17.789-8.798-26.576-4.964c-14.49-11.981-32.04-20.642-49.612-24.211c0,0,24.64-24.64,36.4-36.4   C394.48,152.08,402.56,156.48,411.76,156.48z M289.836,105.48l-11.32,11.316c-3.008,3.02-8.297,3.023-11.313-0.004   c-3.117-3.121-3.117-8.195,0-11.313l11.313-11.313c3.125-3.109,8.195-3.125,11.32,0C292.953,97.285,292.953,102.363,289.836,105.48   z M129.28,360.08h-38l27.36-27.36c2.64-2.72,6.24-4.32,10.32-4.72h32.4C152.8,336.56,142.24,347.12,129.28,360.08z M184,382   c0,0.4,0,0.72-0.08,1.28c-0.32,3.84-1.92,7.36-4.64,10l-27.36,27.44v-38L184,350.64V382z M395.203,233.48l11.313-11.313   c3.117-3.109,8.188-3.125,11.32,0c3.117,3.117,3.117,8.195,0,11.313l-11.32,11.316c-3.016,3.02-8.297,3.023-11.313-0.004   C392.086,241.676,392.086,236.602,395.203,233.48z"/>

</g>

<g id="Layer_1"/>

</svg>