<?xml version="1.0" ?>

<!-- Uploaded to: SVG Repo, www.svgrepo.com, Generator: SVG Repo Mixer Tools -->
<svg fill="#000000" width="800px" height="800px" viewBox="0 0 512 512" version="1.1" xml:space="preserve" xmlns="http://www.w3.org/2000/svg" xmlns:xlink="http://www.w3.org/1999/xlink">

<g id="cupid-bow-arrow-heart-love">

<path d="M431.977,348.742l-27.359-27.363C398.648,315.418,390.406,312,382,312h-47.429L322.8,300.24l24.72-25.04   c23.68-24,27.76-62.48,7.2-89.2c-24.8-32.32-71.04-34.48-98.72-6.48c-18.72-18.96-46-24.08-69.28-15.36l-41.44-41.44   c7.68-5.76,12.32-15.44,10.96-26.16c-1.76-14.16-14.56-24.48-28.88-24.48L88,72c-8.8,0-16,7.2-16,16l0.08,39.36   c0,14.32,10.32,27.12,24.48,28.88c10.72,1.36,20.4-3.28,26.16-10.96l37.36,37.36c-0.96,1.04-1.92,2.16-2.8,3.36   c-3.754,4.913-6.65,10.226-8.804,15.77c-0.069-0.021-0.133-0.058-0.202-0.078c-16.266-4.84-33.539,0.82-43.977,14.398   c-12.516,16.293-10.688,39.996,4.25,55.133l32.516,32.914c5.219,5.219,12.07,7.828,18.922,7.828c6.875,0,13.742-2.617,18.984-7.859   l7.053-7.14l43.418,43.914c14.64,14.8,38.48,14.8,53.12,0l6.56-6.64c-0.08-0.08-0.08-0.08-0.16-0.16l-55.52-55.52   c-3.12-3.12-3.12-8.16,0-11.28c3.12-3.12,8.16-3.12,11.28,0l55.6,55.6L312,334.571v47.507c0,8.406,3.422,16.648,9.383,22.617   l27.359,27.359c10.03,10.03,27.336,3.001,27.336-11.254v-22.09l7.362,7.369c6.24,6.24,16.4,6.24,22.64,0   c6.24-6.24,6.24-16.4,0-22.64l-7.369-7.362h22.008C434.941,376.078,442.04,358.806,431.977,348.742z M200.063,259.98   l-32.438,32.844c-4.211,4.195-11.047,4.199-15.211,0.035l-32.477-32.879c-9.359-9.477-10.625-24.156-2.953-34.145   c9.526-12.397,27.102-12.886,37.305-2.477c1.5,1.531,3.555,2.395,5.695,2.398c0.008,0,0.008,0,0.016,0   c2.141,0,4.188-0.855,5.688-2.375c10.371-10.482,27.787-9.974,37.328,2.449C210.688,235.824,209.422,250.504,200.063,259.98z    M313.2,248.24c-3.12-3.04-3.2-8.16-0.08-11.28c8.4-8.56,8.4-22.4,0-30.88c-3.84-3.92-8.96-6.08-14.32-6.08c-4.4,0-8-3.6-8-8   s3.6-8,8-8c9.68,0,18.88,3.84,25.76,10.88c14.48,14.64,14.48,38.56,0,53.28C321.455,251.264,316.55,251.422,313.2,248.24z    M360.055,420.742l-27.359-27.359c-2.984-2.988-4.695-7.109-4.695-11.305v-31.491l32.074,32.105L360.055,420.742z M382.696,360.078   L350.586,328H382c4.195,0,8.32,1.711,11.305,4.695l27.414,27.383H382.696z"/>

</g>

<g id="Layer_1"/>

</svg>