<?xml version="1.0" ?>

<!-- Uploaded to: SVG Repo, www.svgrepo.com, Generator: SVG Repo Mixer Tools -->
<svg fill="#000000" width="800px" height="800px" viewBox="0 0 512 512" version="1.1" xml:space="preserve" xmlns="http://www.w3.org/2000/svg" xmlns:xlink="http://www.w3.org/1999/xlink">

<g id="dinner-romance-heart-love-valentine">

<path d="M160,296v8c0,4.418-3.582,8-8,8h-23.754l23.516,94.063c1.07,4.281-1.535,8.625-5.82,9.695   c-0.652,0.164-1.305,0.242-1.949,0.242c-3.582,0-6.844-2.422-7.754-6.063c-0.594-2.378-24.092-95.486-24.088-97.938H87.902   c0.001,2.478-31.525,96.171-32.312,98.531C54.473,413.883,51.352,416,48,416c-0.836,0-1.691-0.133-2.531-0.414   c-4.191-1.391-6.457-5.922-5.059-10.117L71.566,312H48c-4.418,0-8-3.582-8-8v-17.333V280v-48v-14.667V160c0-4.418,3.582-8,8-8h8   c13.255,0,24,10.745,24,24v40c0,13.255-10.745,24-24,24v32h80C149.255,272,160,282.745,160,296z M242.739,194.485   c7.318,7.398,19.204,7.398,26.522,0l32.5-32.855c11.85-11.979,13.889-31.23,3.614-44.605   c-12.415-16.161-35.529-17.243-49.376-3.245c-13.847-13.998-36.961-12.917-49.375,3.245c-10.275,13.376-8.235,32.626,3.614,44.605   L242.739,194.485z M464,152h-8c-13.255,0-24,10.745-24,24v40c0,13.255,10.745,24,24,24v32h-80c-13.255,0-24,10.745-24,24v8   c0,4.418,3.582,8,8,8h23.754l-23.516,94.063c-1.07,4.281,1.535,8.625,5.82,9.695c0.652,0.164,1.305,0.242,1.949,0.242   c3.582,0,6.844-2.422,7.754-6.063c0.595-2.378,24.092-95.486,24.088-97.938h24.248c-0.001,2.478,31.525,96.171,32.312,98.531   c1.117,3.352,4.238,5.469,7.59,5.469c0.836,0,1.691-0.133,2.531-0.414c4.191-1.391,6.457-5.922,5.059-10.117L440.434,312H464   c4.418,0,8-3.582,8-8v-21.333V280v-48v-2.667V160C472,155.582,468.418,152,464,152z M277.324,280   c-8.004,0-11.586,2.688-16.539,6.398C255.082,290.68,247.98,296,234.648,296c-13.328,0-20.426-5.32-26.125-9.602   C203.57,282.688,199.996,280,192,280v24c0,4.418,3.582,8,8,8h42v64h-30.343c-8.836,0-16,7.163-16,16v8c0,4.418,3.582,8,8,8h104.686   c4.418,0,8-3.582,8-8v-8c0-8.837-7.163-16-16-16H270v-64h42c4.418,0,8-3.582,8-8v-8c-13.336,0-20.434-5.32-26.141-9.602   C288.906,282.688,285.324,280,277.324,280z M288,232h-64c-17.673,0-32,14.327-32,32c13.328,0,20.426,5.32,26.125,9.602   c4.953,3.711,8.527,6.398,16.523,6.398c8,0,11.582-2.688,16.535-6.398c5.707-4.281,12.805-9.602,26.141-9.602   c13.332,0,20.434,5.32,26.137,9.602C308.414,277.313,311.996,280,320,280v-16C320,246.327,305.673,232,288,232z"/>

</g>

<g id="Layer_1"/>

</svg>