<?xml version="1.0" ?>

<!-- Uploaded to: SVG Repo, www.svgrepo.com, Generator: SVG Repo Mixer Tools -->
<svg fill="#000000" width="800px" height="800px" viewBox="0 0 512 512" version="1.1" xml:space="preserve" xmlns="http://www.w3.org/2000/svg" xmlns:xlink="http://www.w3.org/1999/xlink">

<g id="dove-bird-love-heart-valentine">

<path d="M182.32,105.666c-7.017-7.196-8.387-18.749-2.104-26.593c7.145-8.922,20.021-9.403,27.784-1.442   c7.763-7.96,20.64-7.479,27.784,1.442c6.283,7.845,4.913,19.397-2.104,26.593l-19.953,20.46c-3.14,3.22-8.315,3.22-11.455,0   L182.32,105.666z M435.784,287.073c-7.145-8.922-20.021-9.403-27.784-1.442c-7.763-7.96-20.639-7.479-27.784,1.442   c-6.283,7.845-4.913,19.397,2.104,26.593l19.952,20.46c3.14,3.22,8.315,3.22,11.455,0l19.953-20.46   C440.697,306.47,442.067,294.917,435.784,287.073z M128,345.78c-13.847-13.998-36.961-12.917-49.375,3.245   c-10.275,13.376-8.235,32.626,3.614,44.605l32.5,32.855c7.318,7.398,19.204,7.398,26.522,0l32.5-32.855   c11.85-11.979,13.889-31.229,3.614-44.605C164.961,332.863,141.847,331.782,128,345.78z M378.32,362.32   c5.04,5.04,1.52,13.68-5.6,13.68h-31.44c-8.48,0-16.64-3.36-22.64-9.36l-29.2-29.2c-5.6,2.32-11.44,4-17.44,5.12   c-27.52,5.04-56.96-3.04-78.24-24.32C176.56,301.04,168,278.56,168,256c0-26.48-21.52-48-48-48c-0.72-17.36,9.2-33.44,25.12-40.48   c15.92-7.12,34.48-3.68,46.88,8.48l26.32,26.32l46.64-46.64c7.44-7.44,17.76-11.68,28.32-11.68h111.44   c6.48,0,12.24,3.84,14.72,9.84s1.12,12.88-3.44,17.52l-8.96,8.96c-1.36,1.36-2.8,2.56-4.32,3.68h18c7.12,0,10.64,8.64,5.6,13.68   l-8.96,8.96c-6,6-14.16,9.36-22.64,9.36H336l40,16l-6.64,6.64c-6,6-14.16,9.36-22.64,9.36H304l24,16l-6.64,6.64   c-6,6-14.16,9.36-22.64,9.36H296L378.32,362.32z M176,192c0-4.4-3.6-8-8-8s-8,3.6-8,8s3.6,8,8,8S176,196.4,176,192z M309.28,184   h61.44c6.4,0,12.48-2.56,16.96-7.04L404.64,160H293.2c-6.32,0-12.4,2.56-16.88,7.04l-46.64,46.64L248,232l38.64-38.64   C292.64,187.36,300.8,184,309.28,184z"/>

</g>

<g id="Layer_1"/>

</svg>