<?xml version="1.0" ?>

<!-- Uploaded to: SVG Repo, www.svgrepo.com, Generator: SVG Repo Mixer Tools -->
<svg fill="#000000" width="800px" height="800px" viewBox="0 0 512 512" version="1.1" xml:space="preserve" xmlns="http://www.w3.org/2000/svg" xmlns:xlink="http://www.w3.org/1999/xlink">

<g id="dove-bird-heart-love-valentine">

<path d="M210.239,161.63c-11.85-11.979-13.889-31.229-3.614-44.605c12.415-16.161,35.529-17.243,49.375-3.245   c13.847-13.998,36.961-12.917,49.376,3.245c10.275,13.376,8.235,32.626-3.614,44.605l-32.5,32.855   c-7.318,7.398-19.204,7.398-26.522,0L210.239,161.63z M256,353.63c-7.763-7.96-20.639-7.479-27.784,1.442   c-6.283,7.845-4.913,19.397,2.104,26.593l19.952,20.46c3.14,3.22,8.315,3.22,11.455,0l19.953-20.46   c7.017-7.196,8.387-18.749,2.104-26.593C276.64,346.151,263.763,345.67,256,353.63z M256,256c-22.08,0-40,17.92-40,40   c0,39.76-32.24,72-72,72c-9.52,0-18.56-1.84-26.8-5.2l-28.24,28.24c-9.36,9.36-24.56,9.36-33.92,0l-1.36-1.36   c-3.12-3.12-3.12-8.24,0-11.36L106,326c13.76,2.8,30.4,1.6,38-6c-10.928,0-22.483,1.517-33.36-9.36L96,296l16-16H80l-26.32-26.32   c-5.04-5.04-1.52-13.68,5.6-13.68h25.36L72,227.36c-4.56-4.64-5.92-11.52-3.44-17.52S76.8,200,83.28,200h47.44   c10.56,0,20.88,4.24,28.32,11.68l30.64,30.64L192,240c9.84-8.88,23.44-12.32,36.32-9.12C241.12,234.08,251.52,243.52,256,256z    M178.32,253.68l-30.64-30.64c-4.4-4.48-10.64-7.04-16.96-7.04H83.28l24,24h7.44c8.48,0,16.64,3.36,22.64,9.36L160,272   L178.32,253.68z M458.32,389.68l-1.36,1.36c-9.36,9.36-24.56,9.36-33.92,0L394.8,362.8c-8.24,3.36-17.28,5.2-26.8,5.2   c-39.76,0-72-32.24-72-72c0-22.08-17.92-40-40-40c4.48-12.48,14.88-21.92,27.68-25.12c12.88-3.2,26.48,0.24,36.32,9.12l2.32,2.32   l30.64-30.64c7.44-7.44,17.76-11.68,28.32-11.68h47.44c6.48,0,12.24,3.84,14.72,9.84s1.12,12.88-3.44,17.52L427.36,240h25.36   c7.12,0,10.64,8.64,5.6,13.68L432,280h-32l16,16l-14.64,14.64C390.479,321.522,378.925,320,368,320c7.6,7.6,24.24,8.8,38,6   l52.32,52.32C461.44,381.44,461.44,386.56,458.32,389.68z M374.64,249.36c6-6,14.16-9.36,22.64-9.36h7.44l24-24h-47.44   c-6.32,0-12.56,2.56-16.96,7.04l-30.64,30.64L352,272L374.64,249.36z"/>

</g>

<g id="Layer_1"/>

</svg>