<?xml version="1.0" ?>

<!-- Uploaded to: SVG Repo, www.svgrepo.com, Generator: SVG Repo Mixer Tools -->
<svg fill="#000000" width="800px" height="800px" viewBox="0 0 512 512" version="1.1" xml:space="preserve" xmlns="http://www.w3.org/2000/svg" xmlns:xlink="http://www.w3.org/1999/xlink">

<g id="gender-male-female-heart-love">

<path d="M420,264h-0.08c-11.04,0-20,8.96-20,20v23.68l-26.48-26.56c9.76-15.04,15.52-32.96,15.52-52.16   c0-58.855-52.599-103.78-110.4-94.96c16.815,10.58,32.282,26.921,41.2,45.84c4.56,2.4,8.88,5.6,12.72,9.52   c26.577,26.48,19.986,71.787-13.843,89.188c-1.315-5.132-3.559-10.056-6.918-14.431v-0.004c-0.766-0.997-1.594-1.931-2.438-2.846   c17.284-48.371-5.956-101.117-53.201-121.027c-34.88-14.48-76.48-7.6-104.88,20.8c-32.64,32.64-36.8,82.88-12.64,120.16   l-21.12,21.04l-11.28-11.28c-7.84-7.84-20.48-7.84-28.32,0c-7.76,7.76-7.76,20.48,0,28.24l11.36,11.36l-11.36,11.28   c-7.76,7.84-7.76,20.48,0,28.32c7.84,7.76,20.48,7.76,28.32,0l11.28-11.36l11.36,11.36c7.76,7.76,20.48,7.76,28.24,0   c7.84-7.84,7.84-20.48,0-28.32l-11.28-11.28l21.04-21.12c13.111,8.493,27.815,13.396,42.784,14.871l27.471,27.771   c10.438,10.543,27.409,10.591,37.891-0.004l27.331-27.629c15.666-1.54,30.27-6.849,42.844-15.009l26.56,26.48H348   c-11.04,0-20,8.96-20,20V356c0,11.04,8.96,20,20,20h60c17.68,0,32-14.32,32-32v-60C440,272.96,431.04,264,420,264z M202.69,261.3   c-0.833,0.905-1.652,1.827-2.409,2.813c-3.369,4.385-5.613,9.322-6.927,14.467c-17.981-9.282-30.314-27.977-30.314-49.62   c0-48,57.092-73.818,92.96-42c11.68,10.24,19.04,25.28,19.04,42c0,7.086-1.462,13.797-3.889,20.025   c-5.409,1.109-10.595,3.163-15.151,6.343c-4.554-3.177-9.728-5.236-15.136-6.346c-6.245-16.261-4.75-34.804,4.736-49.862   c-0.08-0.08-0.08-0.08-0.16-0.16c-10.539-9.292-26.046-13.274-41.2-6.96c-4.72,11.36-7.28,23.84-7.28,36.96   C196.96,240.334,199.026,251.184,202.69,261.3z M296.07,307.969l-32.5,32.859c-4.047,4.086-11.098,4.086-15.145,0l-32.5-32.855   c-9.355-9.461-10.625-24.125-2.957-34.109c4.516-5.879,10.984-9.363,18.211-9.816c0.512-0.031,1.023-0.047,1.535-0.047   c6.574,0,12.918,2.641,17.598,7.371c3.008,3.039,8.375,3.039,11.375,0c5.047-5.102,12.148-7.762,19.125-7.324   c7.234,0.453,13.703,3.938,18.219,9.816C306.703,283.852,305.43,298.512,296.07,307.969z"/>

</g>

<g id="Layer_1"/>

</svg>