<?xml version="1.0" ?>

<!-- Uploaded to: SVG Repo, www.svgrepo.com, Generator: SVG Repo Mixer Tools -->
<svg fill="#000000" width="800px" height="800px" viewBox="0 0 512 512" version="1.1" xml:space="preserve" xmlns="http://www.w3.org/2000/svg" xmlns:xlink="http://www.w3.org/1999/xlink">

<g id="hand-charity-heart-love-valentine">

<path d="M331.28,289.92c-18.72-18.72-18.72-49.12,0-67.84l3.76-3.76c9.36-9.36,24.56-9.36,33.92,0l26.56,26.56   c19.84-32.24,19.92-74.4-3.76-105.12c-18.291-23.902-45.141-35.652-71.912-35.646c-0.153-8.508-2.723-16.929-8.13-23.966   C298.038,62.341,273.502,59.151,256,71.363c-17.782-12.411-42.243-8.755-55.719,8.785c-5.407,7.037-7.977,15.458-8.13,23.966   c-26.77-0.006-53.62,11.744-71.911,35.646c-23.68,30.72-23.6,72.88-3.76,105.12c10.802-10.801,5.717-5.716,26.56-26.56   c9.36-9.36,24.56-9.36,33.92,0l3.76,3.76c18.72,18.72,18.72,49.12,0,67.84l-11.76,11.76l50.56,51.04c20.16,20.4,52.8,20.4,72.96,0   l50.56-51.04L331.28,289.92z M328.32,136.16c1.28-4.24,5.76-6.64,10-5.36c10,3.04,19.28,8.56,26.8,15.84   C377.28,158.56,384,174.4,384,191.12c0,4.48-3.6,8-8,8s-8-3.52-8-8c0-12.4-4.96-24.16-14.08-33.04c-5.76-5.6-12.56-9.6-20.24-11.92   C329.44,144.88,327.04,140.4,328.32,136.16z M212.969,89.898c9.604-12.504,27.069-12.878,37.344-2.492   c3.008,3.039,8.367,3.039,11.375,0c10.337-10.441,27.775-9.965,37.344,2.492c7.672,9.984,6.402,24.645-2.957,34.105l-32.5,32.855   c-4.055,4.094-11.094,4.094-15.148,0l-32.5-32.855C206.566,114.543,205.297,99.883,212.969,89.898z M308.08,291.44l-26.32,25.76   c-3.456,3.283-8.416,2.935-11.28-0.08c-3.12-3.2-3.04-8.24,0.08-11.36L296.88,280c3.12-3.12,8.24-3.04,11.28,0.16   C311.28,283.28,311.2,288.32,308.08,291.44z M88,416h96v8c0,8.836-7.163,16-16,16h-64c-8.836,0-16-7.164-16-16V416z    M172.069,327.544L204.8,360.64c-1.52,3.2-3.6,6.16-6.16,8.72C190.63,377.371,184,382.442,184,400H88v-20.72   c0-18.82-16-20.223-16-38.56v-79.44c0-8.48,3.36-16.64,9.36-22.64l10.08-10.08c3.04,9.76,7.6,19.12,13.44,27.92   c-7.787,7.787-6.853,17.546-0.88,23.52l50.343-50.343c3.124-3.124,8.189-3.124,11.313,0l3.716,3.716   c12.497,12.497,12.497,32.758,0,45.255L144,304l11.314,11.313c3,3.001,4.686,7.07,4.686,11.314V360   C160,360,169.66,343.638,172.069,327.544z M328,416h96v8c0,8.836-7.164,16-16,16h-64c-8.837,0-16-7.164-16-16V416z M440,261.28   v79.44c0,18.336-16,19.74-16,38.56V400h-96c0-17.558-6.63-22.629-14.64-30.64c-2.56-2.56-4.64-5.52-6.16-8.72l32.731-33.096   C342.34,343.638,352,360,352,360v-24v-9.373c0-4.244,1.686-8.313,4.686-11.314L368,304l-25.373-25.373   c-12.497-12.497-12.497-32.758,0-45.255l3.716-3.716c3.124-3.124,8.189-3.124,11.313,0L408,280   c5.973-5.974,6.907-15.733-0.88-23.52c5.84-8.8,10.4-18.16,13.44-27.92l10.08,10.08C436.64,244.64,440,252.8,440,261.28z"/>

</g>

<g id="Layer_1"/>

</svg>